<svg width="55" height="55" viewBox="0 0 55 55" fill="none" xmlns="http://www.w3.org/2000/svg">
<path fill-rule="evenodd" clip-rule="evenodd" d="M27.5 55.0001C42.6878 55.0001 55 42.6879 55 27.5001C55 12.3122 42.6878 6.10352e-05 27.5 6.10352e-05C12.3122 6.10352e-05 0 12.3122 0 27.5001C0 42.6879 12.3122 55.0001 27.5 55.0001ZM51.5079 27.5001C51.5079 40.7593 40.7592 51.508 27.5 51.508C14.2408 51.508 3.49206 40.7593 3.49206 27.5001C3.49206 14.2408 14.2408 3.49212 27.5 3.49212C40.7592 3.49212 51.5079 14.2408 51.5079 27.5001ZM18.7279 21.0365C20.5128 21.0365 21.9597 19.5896 21.9597 17.8047C21.9597 16.0198 20.5128 14.5728 18.7279 14.5728C16.943 14.5728 15.4961 16.0198 15.4961 17.8047C15.4961 19.5896 16.943 21.0365 18.7279 21.0365ZM40.4273 17.8047C40.4273 19.5896 38.9804 21.0365 37.1955 21.0365C35.4106 21.0365 33.9637 19.5896 33.9637 17.8047C33.9637 16.0198 35.4106 14.5728 37.1955 14.5728C38.9804 14.5728 40.4273 16.0198 40.4273 17.8047ZM18.0229 31.4261C17.6412 30.5406 16.6139 30.1321 15.7284 30.5137C14.8428 30.8954 14.4343 31.9226 14.816 32.8082C17.0232 37.9299 22.4388 41.5021 28.1512 41.5021C33.8472 41.5021 39.2465 37.9178 41.4692 32.827C41.855 31.9432 41.4514 30.914 40.5677 30.5282C39.6839 30.1423 38.6547 30.546 38.2689 31.4297C36.6011 35.2497 32.4573 38.01 28.1512 38.01C23.8187 38.01 19.6726 35.254 18.0229 31.4261Z" fill="black"/>
</svg>
