<?xml version="1.0" encoding="utf-8"?>
<!-- Generator: Adobe Illustrator 17.0.0, SVG Export Plug-In . SVG Version: 6.00 Build 0)  -->
<!DOCTYPE svg PUBLIC "-//W3C//DTD SVG 1.1//EN" "http://www.w3.org/Graphics/SVG/1.1/DTD/svg11.dtd">
<svg version="1.1" id="Layer_1" xmlns="http://www.w3.org/2000/svg" xmlns:xlink="http://www.w3.org/1999/xlink" x="0px" y="0px"
	 width="271px" height="67.75px" viewBox="64 0 271 67.75" enable-background="new 64 0 271 67.75" xml:space="preserve">
<g>
	<path fill="#FFFFFF" d="M100.108,58.254h-6.256V33.453c0-5.139-2.309-7.671-6.48-7.671c-5.511,0-11.321,6.182-11.321,16.534v15.938
		h-6.256V5.524h6.256v22.194c2.384-4.543,7.225-7.596,13.034-7.596c6.852,0,11.023,4.096,11.023,12.065
		C100.108,32.187,100.108,58.254,100.108,58.254z"/>
	<path fill="#FFFFFF" d="M142.781,40.826h-27.556c0.372,6.927,3.798,12.362,10.576,12.362c5.511,0,8.341-2.53,10.426-7.149
		l5.512,2.384c-3.501,7.299-8.193,10.427-15.938,10.427c-11.396,0-16.981-9.31-16.981-19.363c0-10.056,5.585-19.364,16.981-19.364
		c11.096,0,16.98,8.49,16.98,17.8L142.781,40.826L142.781,40.826z M115.597,35.166h20.63c-1.117-5.362-4.394-9.384-10.426-9.384
		C119.991,25.782,116.714,29.729,115.597,35.166"/>
	<path fill="#FFFFFF" d="M172.72,26.825c-1.341-0.671-2.831-1.043-4.394-1.043c-5.139,0-10.501,6.033-10.501,18.248v14.225h-6.257
		V20.717h6.257v6.405c2.234-4.17,6.851-7,11.022-7c2.085,0,4.022,0.521,5.14,1.117L172.72,26.825z"/>
	<path fill="#FFFFFF" d="M198.934,58.85c-4.544,0-9.161-2.458-10.949-5.213v4.617h-6.256V5.524h6.256v19.662
		c1.266-2.16,6.182-5.064,10.949-5.064c11.021,0,16.683,8.117,16.683,19.364C215.616,50.731,209.955,58.85,198.934,58.85
		 M198.338,25.782c-6.853,0-10.873,5.66-10.873,13.705c0,8.044,4.021,13.702,10.873,13.702c6.628,0,10.872-5.658,10.872-13.702
		C209.21,31.442,204.966,25.782,198.338,25.782"/>
	<path fill="#FFFFFF" d="M252.627,58.254h-4.915l-1.042-5.288c-2.383,3.427-6.182,5.884-11.768,5.884
		c-6.256,0-11.619-3.352-11.619-11.396c0-8.043,6.704-12.288,16.982-12.288h6.105v-1.639c0-5.809-3.648-7.745-8.191-7.745
		c-3.873,0-7,2.16-7.819,5.883l-5.512-1.266c1.042-6.33,6.256-10.278,13.331-10.278c8.268,0,14.447,4.171,14.447,14.151v23.982
		H252.627z M235.871,53.19c4.841,0,10.5-2.98,10.5-11.469v-0.895h-6.702c-6.404,0-9.979,2.383-9.979,6.628
		C229.689,51.03,231.923,53.19,235.871,53.19"/>
	<path fill="#FFFFFF" d="M292.546,58.254h-6.256V33.453c0-5.139-2.31-7.671-6.48-7.671c-5.586,0-10.725,6.33-10.725,16.757v15.715
		h-6.256V20.717h6.256v6.927c2.754-4.841,7.224-7.522,12.438-7.522c6.851,0,11.023,4.245,11.023,11.693L292.546,58.254
		L292.546,58.254z"/>
	<path fill="#FFFFFF" d="M330.899,58.254h-4.915l-1.042-5.288c-2.383,3.427-6.182,5.884-11.769,5.884
		c-6.256,0-11.618-3.352-11.618-11.396c0-8.043,6.704-12.288,16.981-12.288h6.107v-1.639c0-5.809-3.65-7.745-8.192-7.745
		c-3.873,0-7,2.16-7.818,5.883l-5.513-1.266c1.042-6.33,6.256-10.278,13.331-10.278c8.269,0,14.448,4.171,14.448,14.151
		L330.899,58.254L330.899,58.254z M314.144,53.19c4.841,0,10.5-2.98,10.5-11.469v-0.895h-6.702c-6.405,0-9.98,2.383-9.98,6.628
		C307.961,51.03,310.195,53.19,314.144,53.19"/>
</g>
</svg>
