<svg id="Layer_1" data-name="Layer 1" xmlns="http://www.w3.org/2000/svg" xmlns:xlink="http://www.w3.org/1999/xlink" viewBox="0 0 212.6 212.6"><defs><style>.cls-1{fill:#fff;}.cls-2{fill:url(#linear-gradient);}.cls-3{fill:url(#linear-gradient-2);}.cls-4{fill:none;stroke:#fff;stroke-linecap:round;stroke-linejoin:round;stroke-width:0.5px;}</style><linearGradient id="linear-gradient" x1="119.14" y1="96.19" x2="76.12" y2="132.29" gradientUnits="userSpaceOnUse"><stop offset="0" stop-color="#ff6c0e" stop-opacity="0"/><stop offset="0.03" stop-color="#ff6c0e" stop-opacity="0.11"/><stop offset="0.08" stop-color="#ff6c0e" stop-opacity="0.29"/><stop offset="0.14" stop-color="#ff6c0e" stop-opacity="0.46"/><stop offset="0.2" stop-color="#ff6c0e" stop-opacity="0.61"/><stop offset="0.26" stop-color="#ff6c0e" stop-opacity="0.73"/><stop offset="0.34" stop-color="#ff6c0e" stop-opacity="0.83"/><stop offset="0.41" stop-color="#ff6c0e" stop-opacity="0.91"/><stop offset="0.5" stop-color="#ff6c0e" stop-opacity="0.96"/><stop offset="0.62" stop-color="#ff6c0e" stop-opacity="0.99"/><stop offset="0.82" stop-color="#ff6c0e"/></linearGradient><linearGradient id="linear-gradient-2" x1="119.14" y1="96.19" x2="76.12" y2="132.29" gradientUnits="userSpaceOnUse"><stop offset="0.08" stop-color="#ff9015"/><stop offset="0.17" stop-color="#ff9015" stop-opacity="0.98"/><stop offset="0.28" stop-color="#ff9015" stop-opacity="0.91"/><stop offset="0.41" stop-color="#ff9015" stop-opacity="0.81"/><stop offset="0.55" stop-color="#ff9015" stop-opacity="0.66"/><stop offset="0.7" stop-color="#ff9015" stop-opacity="0.47"/><stop offset="0.85" stop-color="#ff9015" stop-opacity="0.24"/><stop offset="1" stop-color="#ff9015" stop-opacity="0"/></linearGradient></defs><title>Graphic_Element_Morin</title><path class="cls-1" d="M89.46,68.94c-2.17-3.11-4.69-6.46-8.48-7.27-5.91-1.26-10.93,4.27-13.55,9.54-9.86,19.87-6,45.34,9.3,61.68s41.18,22.57,62.65,15.07c5.4-1.88,11.23-5.64,11.21-11.18,0-5.18-5.07-8.79-9.35-11.92C120.54,109.74,103.79,89.49,89.46,68.94Z"/><path class="cls-2" d="M89.46,68.94c-2.17-3.11-4.69-6.46-8.48-7.27-5.91-1.26-10.93,4.27-13.55,9.54-9.86,19.87-6,45.34,9.3,61.68s41.18,22.57,62.65,15.07c5.4-1.88,11.23-5.64,11.21-11.18,0-5.18-5.07-8.79-9.35-11.92C120.54,109.74,103.79,89.49,89.46,68.94Z"/><path class="cls-3" d="M89.46,68.94c-2.17-3.11-4.69-6.46-8.48-7.27-5.91-1.26-10.93,4.27-13.55,9.54-9.86,19.87-6,45.34,9.3,61.68s41.18,22.57,62.65,15.07c5.4-1.88,11.23-5.64,11.21-11.18,0-5.18-5.07-8.79-9.35-11.92C120.54,109.74,103.79,89.49,89.46,68.94Z"/><path class="cls-4" d="M105.43,97.11A46.1,46.1,0,0,0,76,97.18"/><path class="cls-4" d="M83.89,119.18c2.35-5.18,5.75-7.93,10.33-11.08s9.74-5.7,15.14-6.5"/><path class="cls-4" d="M110.87,133.53a45.92,45.92,0,0,1,1-28.73"/></svg>