<svg id="Layer_1" data-name="Layer 1" xmlns="http://www.w3.org/2000/svg" xmlns:xlink="http://www.w3.org/1999/xlink" viewBox="0 0 212.6 212.6"><defs><style>.cls-1{fill:#fff;}.cls-2{fill:url(#linear-gradient);}.cls-3{fill:url(#linear-gradient-2);}.cls-4{fill:url(#linear-gradient-3);}.cls-5{fill:url(#linear-gradient-4);}</style><linearGradient id="linear-gradient" x1="137.36" y1="52.66" x2="76.1" y2="158.78" gradientUnits="userSpaceOnUse"><stop offset="0" stop-color="#ff8300" stop-opacity="0"/><stop offset="0.03" stop-color="#ff8300" stop-opacity="0.11"/><stop offset="0.08" stop-color="#ff8300" stop-opacity="0.29"/><stop offset="0.14" stop-color="#ff8300" stop-opacity="0.46"/><stop offset="0.2" stop-color="#ff8300" stop-opacity="0.61"/><stop offset="0.26" stop-color="#ff8300" stop-opacity="0.73"/><stop offset="0.34" stop-color="#ff8300" stop-opacity="0.83"/><stop offset="0.41" stop-color="#ff8300" stop-opacity="0.91"/><stop offset="0.5" stop-color="#ff8300" stop-opacity="0.96"/><stop offset="0.62" stop-color="#ff8300" stop-opacity="0.99"/><stop offset="0.82" stop-color="#ff8300"/></linearGradient><linearGradient id="linear-gradient-2" x1="137.36" y1="52.66" x2="76.1" y2="158.78" gradientUnits="userSpaceOnUse"><stop offset="0.08" stop-color="#ff9e18"/><stop offset="0.17" stop-color="#ff9e18" stop-opacity="0.98"/><stop offset="0.28" stop-color="#ff9e18" stop-opacity="0.91"/><stop offset="0.41" stop-color="#ff9e18" stop-opacity="0.81"/><stop offset="0.55" stop-color="#ff9e18" stop-opacity="0.66"/><stop offset="0.7" stop-color="#ff9e18" stop-opacity="0.47"/><stop offset="0.85" stop-color="#ff9e18" stop-opacity="0.24"/><stop offset="1" stop-color="#ff9e18" stop-opacity="0"/></linearGradient><linearGradient id="linear-gradient-3" x1="122.95" y1="86.96" x2="101.46" y2="124.19" gradientUnits="userSpaceOnUse"><stop offset="0" stop-color="#592e2c" stop-opacity="0"/><stop offset="0.06" stop-color="#592e2c" stop-opacity="0.23"/><stop offset="0.16" stop-color="#592e2c" stop-opacity="0.51"/><stop offset="0.26" stop-color="#592e2c" stop-opacity="0.73"/><stop offset="0.39" stop-color="#592e2c" stop-opacity="0.88"/><stop offset="0.54" stop-color="#592e2c" stop-opacity="0.97"/><stop offset="0.82" stop-color="#592e2c"/></linearGradient><linearGradient id="linear-gradient-4" x1="122.95" y1="86.96" x2="101.46" y2="124.19" gradientUnits="userSpaceOnUse"><stop offset="0.08" stop-color="#623c21"/><stop offset="0.24" stop-color="#623c21" stop-opacity="0.94"/><stop offset="0.45" stop-color="#623c21" stop-opacity="0.78"/><stop offset="0.68" stop-color="#623c21" stop-opacity="0.5"/><stop offset="0.93" stop-color="#623c21" stop-opacity="0.12"/><stop offset="1" stop-color="#623c21" stop-opacity="0"/></linearGradient></defs><title>Graphic_Element_Morin</title><path class="cls-1" d="M57.12,71.12c9-7.17,20.79-9.89,32.8-9.84a29.93,29.93,0,0,0,6.56-.46,29.84,29.84,0,0,0,8-3.58c12.07-6.9,19.62-8.26,33.71-3.56,12.21,4.63,21,16,24.88,28.52s6,21.79,3.79,34.66c-1.3,7.34-3.18,14.71-7.06,21.06s-11.43,13-18.74,14.42c-5.14,1-11.83,2.79-17,3.19-9.66.74-17.31,6.16-26.89,6.15-8.5,0-18.48-2.54-26.19-6.09-15.78-7.28-21.45-19.52-24.46-35.2-2.64-13.75-3.12-30.93,5-43.07A26.82,26.82,0,0,1,57.12,71.12Z"/><path class="cls-2" d="M57.12,71.12c9-7.17,20.79-9.89,32.8-9.84a29.93,29.93,0,0,0,6.56-.46,29.84,29.84,0,0,0,8-3.58c12.07-6.9,19.62-8.26,33.71-3.56,12.21,4.63,21,16,24.88,28.52s6,21.79,3.79,34.66c-1.3,7.34-3.18,14.71-7.06,21.06s-11.43,13-18.74,14.42c-5.14,1-11.83,2.79-17,3.19-9.66.74-17.31,6.16-26.89,6.15-8.5,0-18.48-2.54-26.19-6.09-15.78-7.28-21.45-19.52-24.46-35.2-2.64-13.75-3.12-30.93,5-43.07A26.82,26.82,0,0,1,57.12,71.12Z"/><path class="cls-3" d="M57.12,71.12c9-7.17,20.79-9.89,32.8-9.84a29.93,29.93,0,0,0,6.56-.46,29.84,29.84,0,0,0,8-3.58c12.07-6.9,19.62-8.26,33.71-3.56,12.21,4.63,21,16,24.88,28.52s6,21.79,3.79,34.66c-1.3,7.34-3.18,14.71-7.06,21.06s-11.43,13-18.74,14.42c-5.14,1-11.83,2.79-17,3.19-9.66.74-17.31,6.16-26.89,6.15-8.5,0-18.48-2.54-26.19-6.09-15.78-7.28-21.45-19.52-24.46-35.2-2.64-13.75-3.12-30.93,5-43.07A26.82,26.82,0,0,1,57.12,71.12Z"/><path class="cls-4" d="M102.86,125c-9.33-5.9-8.63-18.33-8-28.08.62-9.27,5.61-15,15.12-14.91,9.46,1,16.94,7.3,22.08,14.73,1.64,2.36,1.58,5.47,1.37,8.34-.34,4.71-.63,8.31-3.14,12.25-2.2,3.44-5.16,9.91-9.07,11.57a10.65,10.65,0,0,1-5.27.36A31.44,31.44,0,0,1,102.86,125Z"/><path class="cls-5" d="M102.86,125c-9.33-5.9-8.63-18.33-8-28.08.62-9.27,5.61-15,15.12-14.91,9.46,1,16.94,7.3,22.08,14.73,1.64,2.36,1.58,5.47,1.37,8.34-.34,4.71-.63,8.31-3.14,12.25-2.2,3.44-5.16,9.91-9.07,11.57a10.65,10.65,0,0,1-5.27.36A31.44,31.44,0,0,1,102.86,125Z"/></svg>