<svg id="Layer_1" data-name="Layer 1" xmlns="http://www.w3.org/2000/svg" xmlns:xlink="http://www.w3.org/1999/xlink" viewBox="0 0 212.6 212.6"><defs><style>.cls-1{fill:#fff;}.cls-2{fill:url(#linear-gradient);}.cls-3{fill:url(#linear-gradient-2);}.cls-4{fill:#573c81;}</style><linearGradient id="linear-gradient" x1="908.43" y1="621.69" x2="908.43" y2="519.11" gradientTransform="translate(1132.71 420.09) rotate(164.88)" gradientUnits="userSpaceOnUse"><stop offset="0" stop-color="#565291" stop-opacity="0"/><stop offset="0.02" stop-color="#565291" stop-opacity="0.06"/><stop offset="0.09" stop-color="#565291" stop-opacity="0.31"/><stop offset="0.16" stop-color="#565291" stop-opacity="0.52"/><stop offset="0.25" stop-color="#565291" stop-opacity="0.7"/><stop offset="0.34" stop-color="#565291" stop-opacity="0.83"/><stop offset="0.45" stop-color="#565291" stop-opacity="0.93"/><stop offset="0.58" stop-color="#565291" stop-opacity="0.98"/><stop offset="0.82" stop-color="#565291"/></linearGradient><linearGradient id="linear-gradient-2" x1="908.43" y1="621.69" x2="908.43" y2="519.11" gradientTransform="translate(1132.71 420.09) rotate(164.88)" gradientUnits="userSpaceOnUse"><stop offset="0.08" stop-color="#5f6db2"/><stop offset="0.19" stop-color="#5f6db2" stop-opacity="0.97"/><stop offset="0.33" stop-color="#5f6db2" stop-opacity="0.88"/><stop offset="0.49" stop-color="#5f6db2" stop-opacity="0.73"/><stop offset="0.67" stop-color="#5f6db2" stop-opacity="0.51"/><stop offset="0.85" stop-color="#5f6db2" stop-opacity="0.25"/><stop offset="1" stop-color="#5f6db2" stop-opacity="0"/></linearGradient></defs><title>Graphic_Element_Morin</title><path class="cls-1" d="M131.14,152.67a47.33,47.33,0,0,0,25-20.33c8.24-13.12,8.73-30.81,4.44-45.34-5.42-18.33-17.29-27.42-35.61-31a68.46,68.46,0,0,0-32.19,1c-20.39,5.72-39.7,21.21-43,43.15-2.52,17,8.24,37.47,21.87,47.29,10.57,7.62,23.93,11.92,37.21,10.08C116.39,156.53,124,155.29,131.14,152.67Z"/><path class="cls-2" d="M131.14,152.67a47.33,47.33,0,0,0,25-20.33c8.24-13.12,8.73-30.81,4.44-45.34-5.42-18.33-17.29-27.42-35.61-31a68.46,68.46,0,0,0-32.19,1c-20.39,5.72-39.7,21.21-43,43.15-2.52,17,8.24,37.47,21.87,47.29,10.57,7.62,23.93,11.92,37.21,10.08C116.39,156.53,124,155.29,131.14,152.67Z"/><path class="cls-3" d="M131.14,152.67a47.33,47.33,0,0,0,25-20.33c8.24-13.12,8.73-30.81,4.44-45.34-5.42-18.33-17.29-27.42-35.61-31a68.46,68.46,0,0,0-32.19,1c-20.39,5.72-39.7,21.21-43,43.15-2.52,17,8.24,37.47,21.87,47.29,10.57,7.62,23.93,11.92,37.21,10.08C116.39,156.53,124,155.29,131.14,152.67Z"/><path class="cls-4" d="M83.67,66.72c1.85-.27,3.71-.55,5.55-.85a6.11,6.11,0,0,0,1.26-.29,18.7,18.7,0,0,0,3.59-3.78c1.59.4,2.54,1.52,3.53,2.24a1.17,1.17,0,0,0,.42.2,2.58,2.58,0,0,0,.68,0l9.27-.83a37.52,37.52,0,0,0-5.49,2.51c-.07,0-.15.08-.17.13a.15.15,0,0,0,.06.13c.78.81,1.61,1.61,2.37,2.42a6.27,6.27,0,0,0,1.63,1.54c-3.24-.57-6.61-1-10.08-1.34a2.15,2.15,0,0,0-.51,0,2.35,2.35,0,0,0-.49.16c-2.87,1.22-5.86,2.34-8.82,3.48l1.93-3.27a.28.28,0,0,0,.07-.22.51.51,0,0,0-.25-.18Z"/></svg>