<svg id="Layer_1" data-name="Layer 1" xmlns="http://www.w3.org/2000/svg" xmlns:xlink="http://www.w3.org/1999/xlink" viewBox="0 0 212.6 212.6"><defs><style>.cls-1{fill:#fff;}.cls-2{fill:url(#linear-gradient);}.cls-3{fill:url(#linear-gradient-2);}.cls-4{fill:url(#linear-gradient-3);}</style><linearGradient id="linear-gradient" x1="121.11" y1="56.31" x2="89.86" y2="172.92" gradientUnits="userSpaceOnUse"><stop offset="0" stop-color="#ff5100" stop-opacity="0"/><stop offset="0.03" stop-color="#ff5100" stop-opacity="0.11"/><stop offset="0.08" stop-color="#ff5100" stop-opacity="0.29"/><stop offset="0.14" stop-color="#ff5100" stop-opacity="0.46"/><stop offset="0.2" stop-color="#ff5100" stop-opacity="0.61"/><stop offset="0.26" stop-color="#ff5100" stop-opacity="0.73"/><stop offset="0.34" stop-color="#ff5100" stop-opacity="0.83"/><stop offset="0.41" stop-color="#ff5100" stop-opacity="0.91"/><stop offset="0.5" stop-color="#ff5100" stop-opacity="0.96"/><stop offset="0.62" stop-color="#ff5100" stop-opacity="0.99"/><stop offset="0.82" stop-color="#ff5100"/></linearGradient><linearGradient id="linear-gradient-2" x1="121.11" y1="56.31" x2="89.86" y2="172.92" gradientUnits="userSpaceOnUse"><stop offset="0.08" stop-color="#ff6c0e"/><stop offset="0.17" stop-color="#ff6c0e" stop-opacity="0.98"/><stop offset="0.28" stop-color="#ff6c0e" stop-opacity="0.91"/><stop offset="0.41" stop-color="#ff6c0e" stop-opacity="0.81"/><stop offset="0.55" stop-color="#ff6c0e" stop-opacity="0.66"/><stop offset="0.7" stop-color="#ff6c0e" stop-opacity="0.47"/><stop offset="0.85" stop-color="#ff6c0e" stop-opacity="0.24"/><stop offset="1" stop-color="#ff6c0e" stop-opacity="0"/></linearGradient><linearGradient id="linear-gradient-3" x1="243.03" y1="-1838.74" x2="243.03" y2="-1888.18" gradientTransform="translate(663.18 1839.67) rotate(-25.69)" gradientUnits="userSpaceOnUse"><stop offset="0.1" stop-color="#38d430"/><stop offset="0.72" stop-color="#00ae42"/></linearGradient></defs><title>Graphic_Element_Morin</title><path class="cls-1" d="M50.1,83.67c-13.9,16.76-14.41,42.61-2.88,61.08S80.79,174,102.56,173.88A73.88,73.88,0,0,0,162,142.47c7.68-11.16,12.18-24.73,11.39-38.27s-7.17-26.88-18-35.06C128.46,48.72,71.23,58.18,50.1,83.67Z"/><path class="cls-2" d="M50.1,83.67c-13.9,16.76-14.41,42.61-2.88,61.08S80.79,174,102.56,173.88A73.88,73.88,0,0,0,162,142.47c7.68-11.16,12.18-24.73,11.39-38.27s-7.17-26.88-18-35.06C128.46,48.72,71.23,58.18,50.1,83.67Z"/><path class="cls-3" d="M50.1,83.67c-13.9,16.76-14.41,42.61-2.88,61.08S80.79,174,102.56,173.88A73.88,73.88,0,0,0,162,142.47c7.68-11.16,12.18-24.73,11.39-38.27s-7.17-26.88-18-35.06C128.46,48.72,71.23,58.18,50.1,83.67Z"/><path class="cls-4" d="M90.78,52.69a31.73,31.73,0,0,0-4.92-6.14c-4.55-4.27-10.7-6.5-16.88-7.35s-12.46-.41-18.68,0A30.6,30.6,0,0,0,62.07,58,42.48,42.48,0,0,0,83,66.11c5.76.67,11.77.61,16.61,4.26C96.66,64.54,94.32,58.22,90.78,52.69Z"/></svg>