<svg id="Layer_1" data-name="Layer 1" xmlns="http://www.w3.org/2000/svg" xmlns:xlink="http://www.w3.org/1999/xlink" viewBox="0 0 212.6 212.6"><defs><style>.cls-1{fill:#fff;}.cls-2{fill:url(#linear-gradient);}.cls-3{fill:url(#linear-gradient-2);}.cls-4{fill:none;stroke:#fff;stroke-linecap:round;stroke-linejoin:round;stroke-width:0.5px;}</style><linearGradient id="linear-gradient" x1="4773.09" y1="-3624.08" x2="4722.06" y2="-3605.33" gradientTransform="translate(4842.99 3752.31) rotate(-105.14)" gradientUnits="userSpaceOnUse"><stop offset="0" stop-color="#ff6c0e" stop-opacity="0"/><stop offset="0.03" stop-color="#ff6c0e" stop-opacity="0.11"/><stop offset="0.08" stop-color="#ff6c0e" stop-opacity="0.29"/><stop offset="0.14" stop-color="#ff6c0e" stop-opacity="0.46"/><stop offset="0.2" stop-color="#ff6c0e" stop-opacity="0.61"/><stop offset="0.26" stop-color="#ff6c0e" stop-opacity="0.73"/><stop offset="0.34" stop-color="#ff6c0e" stop-opacity="0.83"/><stop offset="0.41" stop-color="#ff6c0e" stop-opacity="0.91"/><stop offset="0.5" stop-color="#ff6c0e" stop-opacity="0.96"/><stop offset="0.62" stop-color="#ff6c0e" stop-opacity="0.99"/><stop offset="0.82" stop-color="#ff6c0e"/></linearGradient><linearGradient id="linear-gradient-2" x1="4773.09" y1="-3624.08" x2="4722.06" y2="-3605.33" gradientTransform="translate(4842.99 3752.31) rotate(-105.14)" gradientUnits="userSpaceOnUse"><stop offset="0.08" stop-color="#ff9015"/><stop offset="0.17" stop-color="#ff9015" stop-opacity="0.98"/><stop offset="0.28" stop-color="#ff9015" stop-opacity="0.91"/><stop offset="0.41" stop-color="#ff9015" stop-opacity="0.81"/><stop offset="0.55" stop-color="#ff9015" stop-opacity="0.66"/><stop offset="0.7" stop-color="#ff9015" stop-opacity="0.47"/><stop offset="0.85" stop-color="#ff9015" stop-opacity="0.24"/><stop offset="1" stop-color="#ff9015" stop-opacity="0"/></linearGradient></defs><title>Graphic_Element_Morin</title><path class="cls-1" d="M68.4,113.32c-5.31,2.22-9.24,5.17-8.87,9.4.68,8.07,14.26,15.73,20.84,17.93,32.95,11,77.68-10.67,72.28-49.26-.79-5.65-3.54-24.62-13-22.07A15,15,0,0,0,134,72.85c-12.12,12.94-25.84,26-42.16,33.47C87.56,108.26,76.41,110,68.4,113.32Z"/><path class="cls-2" d="M68.4,113.32c-5.31,2.22-9.24,5.17-8.87,9.4.68,8.07,14.26,15.73,20.84,17.93,32.95,11,77.68-10.67,72.28-49.26-.79-5.65-3.54-24.62-13-22.07A15,15,0,0,0,134,72.85c-12.12,12.94-25.84,26-42.16,33.47C87.56,108.26,76.41,110,68.4,113.32Z"/><path class="cls-3" d="M68.4,113.32c-5.31,2.22-9.24,5.17-8.87,9.4.68,8.07,14.26,15.73,20.84,17.93,32.95,11,77.68-10.67,72.28-49.26-.79-5.65-3.54-24.62-13-22.07A15,15,0,0,0,134,72.85c-12.12,12.94-25.84,26-42.16,33.47C87.56,108.26,76.41,110,68.4,113.32Z"/><path class="cls-4" d="M104.89,102.39a28.17,28.17,0,0,0,2.23,8.78,40.35,40.35,0,0,0,11.55,14.12"/><path class="cls-4" d="M108.86,100.06c5.77,6.59,17.36,8.15,25.46,6.09"/><path class="cls-4" d="M100.88,104.63c-5.23,6.06-6.61,18.05-3,25.17"/></svg>