<svg id="Layer_1" data-name="Layer 1" xmlns="http://www.w3.org/2000/svg" xmlns:xlink="http://www.w3.org/1999/xlink" viewBox="0 0 212.6 212.6"><defs><style>.cls-1{fill:url(#linear-gradient);}</style><linearGradient id="linear-gradient" x1="1071.83" y1="-1773.91" x2="1079.95" y2="-1727.87" gradientTransform="translate(540.95 2117.99) rotate(-43.81)" gradientUnits="userSpaceOnUse"><stop offset="0.1" stop-color="#38d430"/><stop offset="0.83" stop-color="#00ae42"/></linearGradient></defs><title>Graphic_Element_Morin</title><path class="cls-1" d="M108.71,90.7c-1.28,1.22-.27,3.35.8,4.76,5.31,7.08,10.35,14.33,15.59,21.43-4.6-3.25-9.74-5.65-14.65-8.43q-8.37-4.72-17-9c-1.69-.84-3.38-1.68-5.12-2.42-1-.42-2.35-.69-2.91.21s.14,1.85.83,2.52c2.34,2.22,5.45,3.4,8.45,4.58,5.45,2.15,10.7,4.75,15.94,7.35,2.14,1,4.28,2.1,6.43,3.12-3.18.6-6.12,1.39-9.34,2.19A97.07,97.07,0,0,1,97.2,119a23.46,23.46,0,0,0-6.93,1.51c1,1.71,3.49,1.62,5.45,1.3q5.32-.9,10.6-2.07a110.06,110.06,0,0,0,12.47-4.2c2.64,1.25,5.09,2.59,7.81,3.65.26.1.64.15.72-.11a.52.52,0,0,0-.06-.34,106.15,106.15,0,0,0-9.55-17.72C117.06,100.07,110.25,89.24,108.71,90.7Z"/></svg>