<svg id="Layer_1" data-name="Layer 1" xmlns="http://www.w3.org/2000/svg" xmlns:xlink="http://www.w3.org/1999/xlink" viewBox="0 0 212.6 212.6"><defs><style>.cls-1{fill:url(#linear-gradient);}.cls-2{fill:url(#linear-gradient-2);}.cls-3{fill:#573c81;}</style><linearGradient id="linear-gradient" x1="134.29" y1="-25.03" x2="211.88" y2="52.56" gradientTransform="translate(-66.73 125.53) rotate(-10.39)" gradientUnits="userSpaceOnUse"><stop offset="0" stop-color="#565291" stop-opacity="0"/><stop offset="0.02" stop-color="#565291" stop-opacity="0.06"/><stop offset="0.09" stop-color="#565291" stop-opacity="0.31"/><stop offset="0.16" stop-color="#565291" stop-opacity="0.52"/><stop offset="0.25" stop-color="#565291" stop-opacity="0.7"/><stop offset="0.34" stop-color="#565291" stop-opacity="0.83"/><stop offset="0.45" stop-color="#565291" stop-opacity="0.93"/><stop offset="0.58" stop-color="#565291" stop-opacity="0.98"/><stop offset="0.82" stop-color="#565291"/></linearGradient><linearGradient id="linear-gradient-2" x1="134.29" y1="-25.03" x2="211.88" y2="52.56" gradientTransform="translate(-66.73 125.53) rotate(-10.39)" gradientUnits="userSpaceOnUse"><stop offset="0.08" stop-color="#5f6db2"/><stop offset="0.19" stop-color="#5f6db2" stop-opacity="0.97"/><stop offset="0.33" stop-color="#5f6db2" stop-opacity="0.88"/><stop offset="0.49" stop-color="#5f6db2" stop-opacity="0.73"/><stop offset="0.67" stop-color="#5f6db2" stop-opacity="0.51"/><stop offset="0.85" stop-color="#5f6db2" stop-opacity="0.25"/><stop offset="1" stop-color="#5f6db2" stop-opacity="0"/></linearGradient></defs><title>Graphic_Element_Morin</title><path class="cls-1" d="M100.86,55.07a33.45,33.45,0,0,0-15.35,2.52,83.75,83.75,0,0,0-15.4,8.58c-7.3,5.28-13.18,17-14.61,21.38-2.73,8.38-6.25,18.56-4.73,27.45,2.37,13.91,8.29,27.65,22.24,33.84,6.73,3,34.41,9.41,42.25,8.69,36.17-3.36,60.1-41.92,39.09-74.37A111.15,111.15,0,0,0,144.7,71c-6.57-7.11-14.33-9.07-23.16-11.66C114.79,57.38,107.94,55.44,100.86,55.07Z"/><path class="cls-2" d="M100.86,55.07a33.45,33.45,0,0,0-15.35,2.52,83.75,83.75,0,0,0-15.4,8.58c-7.3,5.28-13.18,17-14.61,21.38-2.73,8.38-6.25,18.56-4.73,27.45,2.37,13.91,8.29,27.65,22.24,33.84,6.73,3,34.41,9.41,42.25,8.69,36.17-3.36,60.1-41.92,39.09-74.37A111.15,111.15,0,0,0,144.7,71c-6.57-7.11-14.33-9.07-23.16-11.66C114.79,57.38,107.94,55.44,100.86,55.07Z"/><path class="cls-3" d="M105.56,65.71c1.84.3,3.7.58,5.55.85a5.66,5.66,0,0,0,1.28.1A18.64,18.64,0,0,0,117,64.13c1.39.86,2,2.22,2.7,3.2a1.06,1.06,0,0,0,.34.32,2.76,2.76,0,0,0,.65.2l9.09,2a38.31,38.31,0,0,0-6,.74.42.42,0,0,0-.2.08s0,.09,0,.14c.51,1,1.06,2,1.54,3a6.21,6.21,0,0,0,1.1,2c-2.93-1.52-6-3-9.21-4.31a2.07,2.07,0,0,0-.5-.15,1.74,1.74,0,0,0-.51,0c-3.1.3-6.29.47-9.46.67l2.83-2.53c.06-.06.13-.12.13-.19s-.1-.17-.19-.25Z"/></svg>