<svg id="Layer_1" data-name="Layer 1" xmlns="http://www.w3.org/2000/svg" xmlns:xlink="http://www.w3.org/1999/xlink" viewBox="0 0 212.6 212.6"><defs><style>.cls-1{fill:#fff;}.cls-2{fill:url(#linear-gradient);}.cls-3{fill:url(#linear-gradient-2);}.cls-4{fill:url(#linear-gradient-3);}</style><linearGradient id="linear-gradient" x1="149.11" y1="47.76" x2="131.12" y2="78.93" gradientUnits="userSpaceOnUse"><stop offset="0.1" stop-color="#38d430"/><stop offset="0.72" stop-color="#00ae42"/></linearGradient><linearGradient id="linear-gradient-2" x1="137.51" y1="153.39" x2="58.05" y2="86.72" gradientUnits="userSpaceOnUse"><stop offset="0.04" stop-color="#ea0029" stop-opacity="0"/><stop offset="0.18" stop-color="#ea0029" stop-opacity="0.23"/><stop offset="0.36" stop-color="#ea0029" stop-opacity="0.5"/><stop offset="0.52" stop-color="#ea0029" stop-opacity="0.72"/><stop offset="0.67" stop-color="#ea0029" stop-opacity="0.87"/><stop offset="0.78" stop-color="#ea0029" stop-opacity="0.97"/><stop offset="0.86" stop-color="#ea0029"/></linearGradient><linearGradient id="linear-gradient-3" x1="137.51" y1="153.39" x2="58.05" y2="86.72" gradientUnits="userSpaceOnUse"><stop offset="0.04" stop-color="#ff4438"/><stop offset="0.17" stop-color="#ff4438" stop-opacity="0.99"/><stop offset="0.29" stop-color="#ff4438" stop-opacity="0.94"/><stop offset="0.41" stop-color="#ff4438" stop-opacity="0.87"/><stop offset="0.53" stop-color="#ff4438" stop-opacity="0.76"/><stop offset="0.64" stop-color="#ff4438" stop-opacity="0.63"/><stop offset="0.76" stop-color="#ff4438" stop-opacity="0.46"/><stop offset="0.87" stop-color="#ff4438" stop-opacity="0.27"/><stop offset="0.98" stop-color="#ff4438" stop-opacity="0.04"/><stop offset="1" stop-color="#ff4438" stop-opacity="0"/></linearGradient></defs><title>Graphic_Element_Morin</title><path class="cls-1" d="M89.09,61.4a10.63,10.63,0,0,0-7.82,8.85A12.7,12.7,0,0,0,66.83,88.37c-1.52-3-9,7.85-9.3,9a12.65,12.65,0,0,0-.1,6.77c.88,3,3.3,4.27,4.92,6.88-3.65,2.7-6.75,6.41-7.76,10.84s.42,9.56,4.18,12.1c-.45-.3-4.58,3.14-5.45,6.63a11.73,11.73,0,0,0,7.74,14.24c-2.59,5.69-1.12,13.24,5,16.13,3.4,1.61,6.13,3,9.89,2.81,4.92-.26,8.08-2,12.57-6.32,5.77,6.08,17.85,3.14,20.2-4.9,4.2,2.54,12.17-1.7,12.31-6.62,7.77,2.44,13.29-3.56,12.62-9.9,4.44.17,8.86-.45,12-3.6,4.21-4.2,4.53-10.08,3-12,3.09,1,6.11-.5,8.9-1.71s5.32-7,5.45-10a21.12,21.12,0,0,0-1.37-7.65c-.28-.82-2.43-3.22-6.44-4.94,6.91-8.11-3.2-18-10.66-17,1-3.66.81-7.32-2.93-10.32-2.86-2.29-9.36-3.87-12.09-.45.67-7.67-10.46-10.22-14.07-8.94.17-3.75-3.37-6.54-7.74-7.64s-8,.59-8.88,2.59C97,61.38,92.31,60.61,89.09,61.4Z"/><path class="cls-2" d="M148.92,79.07c1.69-.26,11-2.16,10.38-5.3-.32-1.66-3.05.07-4,.31-1.57.4-3.17,1-4.77,1.28-2.94.54-5.87,1.18-8.82,1.64A52.24,52.24,0,0,1,130,78.28c7.26-5.08,13.12-11.87,18.89-18.6,1.9-2.21,4.8-4.91,5.65-7.77.67-2.23-1.68-.36-2.2,0-1.28,1-2.46,2.19-3.65,3.3-2.39,2.23-4.72,4.55-7,7S137.15,67.29,135,70c-.84,1-6,6.3-5.68,7.48-2.17-8.41-1.24-17.31.38-25.84a49,49,0,0,0,1.22-7.69,8.91,8.91,0,0,0-.41-3.74c-1.67-3.83-3.18,1.27-3.61,2.68a50.55,50.55,0,0,0-2.1,11.24c-.42,6-.25,11.49,1.54,17.38a14,14,0,0,0,2.61,5.43C133.67,82.19,142.87,80,148.92,79.07Z"/><path class="cls-3" d="M89.09,61.4a10.63,10.63,0,0,0-7.82,8.85A12.7,12.7,0,0,0,66.83,88.37c-1.52-3-9,7.85-9.3,9a12.65,12.65,0,0,0-.1,6.77c.88,3,3.3,4.27,4.92,6.88-3.65,2.7-6.75,6.41-7.76,10.84s.42,9.56,4.18,12.1c-.45-.3-4.58,3.14-5.45,6.63a11.73,11.73,0,0,0,7.74,14.24c-2.59,5.69-1.12,13.24,5,16.13,3.4,1.61,6.13,3,9.89,2.81,4.92-.26,8.08-2,12.57-6.32,5.77,6.08,17.85,3.14,20.2-4.9,4.2,2.54,12.17-1.7,12.31-6.62,7.77,2.44,13.29-3.56,12.62-9.9,4.44.17,8.86-.45,12-3.6,4.21-4.2,4.53-10.08,3-12,3.09,1,6.11-.5,8.9-1.71s5.32-7,5.45-10a21.12,21.12,0,0,0-1.37-7.65c-.28-.82-2.43-3.22-6.44-4.94,6.91-8.11-3.2-18-10.66-17,1-3.66.81-7.32-2.93-10.32-2.86-2.29-9.36-3.87-12.09-.45.67-7.67-10.46-10.22-14.07-8.94.17-3.75-3.37-6.54-7.74-7.64s-8,.59-8.88,2.59C97,61.38,92.31,60.61,89.09,61.4Z"/><path class="cls-4" d="M89.09,61.4a10.63,10.63,0,0,0-7.82,8.85A12.7,12.7,0,0,0,66.83,88.37c-1.52-3-9,7.85-9.3,9a12.65,12.65,0,0,0-.1,6.77c.88,3,3.3,4.27,4.92,6.88-3.65,2.7-6.75,6.41-7.76,10.84s.42,9.56,4.18,12.1c-.45-.3-4.58,3.14-5.45,6.63a11.73,11.73,0,0,0,7.74,14.24c-2.59,5.69-1.12,13.24,5,16.13,3.4,1.61,6.13,3,9.89,2.81,4.92-.26,8.08-2,12.57-6.32,5.77,6.08,17.85,3.14,20.2-4.9,4.2,2.54,12.17-1.7,12.31-6.62,7.77,2.44,13.29-3.56,12.62-9.9,4.44.17,8.86-.45,12-3.6,4.21-4.2,4.53-10.08,3-12,3.09,1,6.11-.5,8.9-1.71s5.32-7,5.45-10a21.12,21.12,0,0,0-1.37-7.65c-.28-.82-2.43-3.22-6.44-4.94,6.91-8.11-3.2-18-10.66-17,1-3.66.81-7.32-2.93-10.32-2.86-2.29-9.36-3.87-12.09-.45.67-7.67-10.46-10.22-14.07-8.94.17-3.75-3.37-6.54-7.74-7.64s-8,.59-8.88,2.59C97,61.38,92.31,60.61,89.09,61.4Z"/></svg>