<svg id="Layer_1" data-name="Layer 1" xmlns="http://www.w3.org/2000/svg" xmlns:xlink="http://www.w3.org/1999/xlink" viewBox="0 0 212.6 212.6"><defs><style>.cls-1{fill:url(#linear-gradient);}.cls-2{fill:#fff;}.cls-3{fill:url(#linear-gradient-2);}.cls-4{fill:url(#linear-gradient-3);}</style><linearGradient id="linear-gradient" x1="129.57" y1="-405.44" x2="200.55" y2="-405.44" gradientTransform="translate(27.42 475.59) rotate(-6.38)" gradientUnits="userSpaceOnUse"><stop offset="0.1" stop-color="#38d430"/><stop offset="0.72" stop-color="#00ae42"/></linearGradient><linearGradient id="linear-gradient-2" x1="61.11" y1="69.46" x2="149.18" y2="174.42" gradientUnits="userSpaceOnUse"><stop offset="0" stop-color="#ff5100" stop-opacity="0"/><stop offset="0.03" stop-color="#ff5100" stop-opacity="0.11"/><stop offset="0.08" stop-color="#ff5100" stop-opacity="0.29"/><stop offset="0.14" stop-color="#ff5100" stop-opacity="0.46"/><stop offset="0.2" stop-color="#ff5100" stop-opacity="0.61"/><stop offset="0.26" stop-color="#ff5100" stop-opacity="0.73"/><stop offset="0.34" stop-color="#ff5100" stop-opacity="0.83"/><stop offset="0.41" stop-color="#ff5100" stop-opacity="0.91"/><stop offset="0.5" stop-color="#ff5100" stop-opacity="0.96"/><stop offset="0.62" stop-color="#ff5100" stop-opacity="0.99"/><stop offset="0.82" stop-color="#ff5100"/></linearGradient><linearGradient id="linear-gradient-3" x1="61.11" y1="69.46" x2="149.18" y2="174.42" gradientUnits="userSpaceOnUse"><stop offset="0.08" stop-color="#ff6c0e"/><stop offset="0.17" stop-color="#ff6c0e" stop-opacity="0.98"/><stop offset="0.28" stop-color="#ff6c0e" stop-opacity="0.91"/><stop offset="0.41" stop-color="#ff6c0e" stop-opacity="0.81"/><stop offset="0.55" stop-color="#ff6c0e" stop-opacity="0.66"/><stop offset="0.7" stop-color="#ff6c0e" stop-opacity="0.47"/><stop offset="0.85" stop-color="#ff6c0e" stop-opacity="0.24"/><stop offset="1" stop-color="#ff6c0e" stop-opacity="0"/></linearGradient></defs><title>Graphic_Element_Morin</title><path class="cls-1" d="M115.63,72.24A113.06,113.06,0,0,1,125,55.17C128.13,50.62,130.58,45,135.4,42a34.27,34.27,0,0,1,4.22-2.17L146,36.9A63.39,63.39,0,0,1,161.06,32c5.93-1,12.69-2,18.51-.18-5.82,6.82-10.73,14.33-16.17,21.49-3.2,4.21-4.7,10.73-8.83,14.08-1.94,1.57-4.44,2.24-6.67,3.36A66.34,66.34,0,0,1,120,78c-2,.08-4.16.5-6.21.73a.51.51,0,0,1-.3,0c-.22-.12-.16-.44-.07-.67C114.27,76.07,114.74,74.16,115.63,72.24Z"/><path class="cls-2" d="M149.62,81.54c-14.77-8.09-31.43-11.63-48-13.93-17.92-2.48-35.08-2.08-50,9.81a49,49,0,0,0-18.5,41.71c2.48,32.64,30.18,52.9,60,60.23,39.7,9.77,84.73-9.77,84.14-56C177,104.75,165.4,90.17,149.62,81.54Z"/><path class="cls-3" d="M149.62,81.54c-14.77-8.09-31.43-11.63-48-13.93-17.92-2.48-35.08-2.08-50,9.81a49,49,0,0,0-18.5,41.71c2.48,32.64,30.18,52.9,60,60.23,39.7,9.77,84.73-9.77,84.14-56C177,104.75,165.4,90.17,149.62,81.54Z"/><path class="cls-4" d="M149.62,81.54c-14.77-8.09-31.43-11.63-48-13.93-17.92-2.48-35.08-2.08-50,9.81a49,49,0,0,0-18.5,41.71c2.48,32.64,30.18,52.9,60,60.23,39.7,9.77,84.73-9.77,84.14-56C177,104.75,165.4,90.17,149.62,81.54Z"/></svg>