<svg id="Layer_1" data-name="Layer 1" xmlns="http://www.w3.org/2000/svg" xmlns:xlink="http://www.w3.org/1999/xlink" viewBox="0 0 212.6 212.6"><defs><style>.cls-1{fill:#fff;}.cls-2{fill:url(#linear-gradient);}.cls-3{fill:url(#linear-gradient-2);}.cls-4{fill:#3c271f;}</style><linearGradient id="linear-gradient" x1="116.36" y1="46.17" x2="96.36" y2="159.6" gradientUnits="userSpaceOnUse"><stop offset="0.04" stop-color="#ea0029" stop-opacity="0"/><stop offset="0.18" stop-color="#ea0029" stop-opacity="0.23"/><stop offset="0.36" stop-color="#ea0029" stop-opacity="0.5"/><stop offset="0.52" stop-color="#ea0029" stop-opacity="0.72"/><stop offset="0.67" stop-color="#ea0029" stop-opacity="0.87"/><stop offset="0.78" stop-color="#ea0029" stop-opacity="0.97"/><stop offset="0.86" stop-color="#ea0029"/></linearGradient><linearGradient id="linear-gradient-2" x1="116.36" y1="46.17" x2="96.36" y2="159.6" gradientUnits="userSpaceOnUse"><stop offset="0.04" stop-color="#ff4438"/><stop offset="0.17" stop-color="#ff4438" stop-opacity="0.99"/><stop offset="0.29" stop-color="#ff4438" stop-opacity="0.94"/><stop offset="0.41" stop-color="#ff4438" stop-opacity="0.87"/><stop offset="0.53" stop-color="#ff4438" stop-opacity="0.76"/><stop offset="0.64" stop-color="#ff4438" stop-opacity="0.63"/><stop offset="0.76" stop-color="#ff4438" stop-opacity="0.46"/><stop offset="0.87" stop-color="#ff4438" stop-opacity="0.27"/><stop offset="0.98" stop-color="#ff4438" stop-opacity="0.04"/><stop offset="1" stop-color="#ff4438" stop-opacity="0"/></linearGradient></defs><title>Graphic_Element_Morin</title><path class="cls-1" d="M56.47,84.78a10.64,10.64,0,0,0,3.16,11.38,12.7,12.7,0,0,0,7.32,22c-3.32-.34,1.69,11.8,2.52,12.73a12.47,12.47,0,0,0,5.62,3.77c3,.9,5.38-.43,8.45-.37.27,4.53,1.7,9.16,4.85,12.42s8.25,4.86,12.43,3.09c-.5.21.13,5.55,2.59,8.18a11.72,11.72,0,0,0,16.15,1.28c3.36,5.27,10.49,8.16,16.23,4.62,3.21-2,5.87-3.49,7.75-6.75,2.47-4.28,2.75-7.86,1.55-14,8.25-1.53,12.37-13.26,6.91-19.61,4.42-2.14,5.21-11.14,1.17-13.93,6.27-5.18,4.26-13.08-1.43-16,2.57-3.63,4.45-7.67,3.53-12-1.23-5.82-6-9.29-8.43-9.08,2.52-2.05,2.91-5.39,3.41-8.4s-2.94-8.27-5.43-10a21.23,21.23,0,0,0-7.16-3c-.83-.21-4,.29-7.64,2.72-3-10.22-16.83-7.13-20.12-.36-2.52-2.83-5.69-4.67-10.24-3.17-3.48,1.14-8.35,5.73-7,9.88-6.07-4.74-14.28,3.21-15.17,6.93-3-2.19-7.32-.74-10.63,2.32s-3.84,7-2.67,8.86C60.78,78.12,57.57,81.65,56.47,84.78Z"/><path class="cls-2" d="M56.47,84.78a10.64,10.64,0,0,0,3.16,11.38,12.7,12.7,0,0,0,7.32,22c-3.32-.34,1.69,11.8,2.52,12.73a12.47,12.47,0,0,0,5.62,3.77c3,.9,5.38-.43,8.45-.37.27,4.53,1.7,9.16,4.85,12.42s8.25,4.86,12.43,3.09c-.5.21.13,5.55,2.59,8.18a11.72,11.72,0,0,0,16.15,1.28c3.36,5.27,10.49,8.16,16.23,4.62,3.21-2,5.87-3.49,7.75-6.75,2.47-4.28,2.75-7.86,1.55-14,8.25-1.53,12.37-13.26,6.91-19.61,4.42-2.14,5.21-11.14,1.17-13.93,6.27-5.18,4.26-13.08-1.43-16,2.57-3.63,4.45-7.67,3.53-12-1.23-5.82-6-9.29-8.43-9.08,2.52-2.05,2.91-5.39,3.41-8.4s-2.94-8.27-5.43-10a21.23,21.23,0,0,0-7.16-3c-.83-.21-4,.29-7.64,2.72-3-10.22-16.83-7.13-20.12-.36-2.52-2.83-5.69-4.67-10.24-3.17-3.48,1.14-8.35,5.73-7,9.88-6.07-4.74-14.28,3.21-15.17,6.93-3-2.19-7.32-.74-10.63,2.32s-3.84,7-2.67,8.86C60.78,78.12,57.57,81.65,56.47,84.78Z"/><path class="cls-3" d="M56.47,84.78a10.64,10.64,0,0,0,3.16,11.38,12.7,12.7,0,0,0,7.32,22c-3.32-.34,1.69,11.8,2.52,12.73a12.47,12.47,0,0,0,5.62,3.77c3,.9,5.38-.43,8.45-.37.27,4.53,1.7,9.16,4.85,12.42s8.25,4.86,12.43,3.09c-.5.21.13,5.55,2.59,8.18a11.72,11.72,0,0,0,16.15,1.28c3.36,5.27,10.49,8.16,16.23,4.62,3.21-2,5.87-3.49,7.75-6.75,2.47-4.28,2.75-7.86,1.55-14,8.25-1.53,12.37-13.26,6.91-19.61,4.42-2.14,5.21-11.14,1.17-13.93,6.27-5.18,4.26-13.08-1.43-16,2.57-3.63,4.45-7.67,3.53-12-1.23-5.82-6-9.29-8.43-9.08,2.52-2.05,2.91-5.39,3.41-8.4s-2.94-8.27-5.43-10a21.23,21.23,0,0,0-7.16-3c-.83-.21-4,.29-7.64,2.72-3-10.22-16.83-7.13-20.12-.36-2.52-2.83-5.69-4.67-10.24-3.17-3.48,1.14-8.35,5.73-7,9.88-6.07-4.74-14.28,3.21-15.17,6.93-3-2.19-7.32-.74-10.63,2.32s-3.84,7-2.67,8.86C60.78,78.12,57.57,81.65,56.47,84.78Z"/><path class="cls-4" d="M93.43,83c-1.08-1.23,5.21-5.25,5.86-5.46a8.13,8.13,0,0,1,7.47.84c-.4-.18-.26-1.62-.23-2a6.58,6.58,0,0,1,.75-2.28c1.81-3.66,5.34-7.15,9.4-8.11a6.36,6.36,0,0,0-6.59-1.72c-2.36.89-5,1.88-6.17,4.36a7.47,7.47,0,0,0-5.21-.12c-3.26,1-6.14,3.12-7.14,6.38a18.81,18.81,0,0,0-3.64.49A13.85,13.85,0,0,0,83.23,79c-2,2.41-3.9,5.37-2.9,8.62C82.05,83.05,89.44,78.41,93.43,83Z"/></svg>