<svg id="Layer_1" data-name="Layer 1" xmlns="http://www.w3.org/2000/svg" xmlns:xlink="http://www.w3.org/1999/xlink" viewBox="0 0 212.6 212.6"><defs><style>.cls-1{fill:url(#linear-gradient);}.cls-2{fill:#fff;}.cls-3{fill:url(#linear-gradient-2);}.cls-4{fill:url(#linear-gradient-3);}.cls-5{fill:url(#linear-gradient-4);}.cls-6{fill:url(#linear-gradient-5);}</style><linearGradient id="linear-gradient" x1="8237.06" y1="573.82" x2="8266.71" y2="521.3" gradientTransform="matrix(-0.99, -0.1, -0.1, 0.99, 8358.84, 371.73)" gradientUnits="userSpaceOnUse"><stop offset="0.1" stop-color="#38d430"/><stop offset="0.72" stop-color="#00ae42"/></linearGradient><linearGradient id="linear-gradient-2" x1="80.78" y1="75.3" x2="134.4" y2="168.18" gradientUnits="userSpaceOnUse"><stop offset="0" stop-color="#ff8300" stop-opacity="0"/><stop offset="0.03" stop-color="#ff8300" stop-opacity="0.11"/><stop offset="0.08" stop-color="#ff8300" stop-opacity="0.29"/><stop offset="0.14" stop-color="#ff8300" stop-opacity="0.46"/><stop offset="0.2" stop-color="#ff8300" stop-opacity="0.61"/><stop offset="0.26" stop-color="#ff8300" stop-opacity="0.73"/><stop offset="0.34" stop-color="#ff8300" stop-opacity="0.83"/><stop offset="0.41" stop-color="#ff8300" stop-opacity="0.91"/><stop offset="0.5" stop-color="#ff8300" stop-opacity="0.96"/><stop offset="0.62" stop-color="#ff8300" stop-opacity="0.99"/><stop offset="0.82" stop-color="#ff8300"/></linearGradient><linearGradient id="linear-gradient-3" x1="80.78" y1="75.3" x2="134.4" y2="168.18" gradientUnits="userSpaceOnUse"><stop offset="0.08" stop-color="#ff9e18"/><stop offset="0.17" stop-color="#ff9e18" stop-opacity="0.98"/><stop offset="0.28" stop-color="#ff9e18" stop-opacity="0.91"/><stop offset="0.41" stop-color="#ff9e18" stop-opacity="0.81"/><stop offset="0.55" stop-color="#ff9e18" stop-opacity="0.66"/><stop offset="0.7" stop-color="#ff9e18" stop-opacity="0.47"/><stop offset="0.85" stop-color="#ff9e18" stop-opacity="0.24"/><stop offset="1" stop-color="#ff9e18" stop-opacity="0"/></linearGradient><linearGradient id="linear-gradient-4" x1="178.96" y1="-814.99" x2="190.65" y2="-775.72" gradientTransform="translate(107.19 944.71) rotate(-13.42)" gradientUnits="userSpaceOnUse"><stop offset="0" stop-color="#592e2c" stop-opacity="0"/><stop offset="0.06" stop-color="#592e2c" stop-opacity="0.23"/><stop offset="0.16" stop-color="#592e2c" stop-opacity="0.51"/><stop offset="0.26" stop-color="#592e2c" stop-opacity="0.73"/><stop offset="0.39" stop-color="#592e2c" stop-opacity="0.88"/><stop offset="0.54" stop-color="#592e2c" stop-opacity="0.97"/><stop offset="0.82" stop-color="#592e2c"/></linearGradient><linearGradient id="linear-gradient-5" x1="178.96" y1="-814.99" x2="190.65" y2="-775.72" gradientTransform="translate(107.19 944.71) rotate(-13.42)" gradientUnits="userSpaceOnUse"><stop offset="0.08" stop-color="#623c21"/><stop offset="0.24" stop-color="#623c21" stop-opacity="0.94"/><stop offset="0.45" stop-color="#623c21" stop-opacity="0.78"/><stop offset="0.68" stop-color="#623c21" stop-opacity="0.5"/><stop offset="0.93" stop-color="#623c21" stop-opacity="0.12"/><stop offset="1" stop-color="#623c21" stop-opacity="0"/></linearGradient></defs><title>Graphic_Element_Morin</title><path class="cls-1" d="M115.46,66.6a27.73,27.73,0,0,0-7-16.21c-4.49-5.14-11.32-6.45-17.7-8.24C86,40.84,79.29,39.13,77.2,34c-4.73,13-5.34,30,8.87,37.23a25.62,25.62,0,0,0,18.22,1.88,35.73,35.73,0,0,0,9.36-4,26.52,26.52,0,0,0,.09,3.82,30.52,30.52,0,0,1-.42,4.17c-.41,2.31-1.08,5.11-2.54,7,1.78,2.58,3.22-3.24,3.42-4.06A41.33,41.33,0,0,0,115.46,66.6Z"/><path class="cls-2" d="M70.81,81.09C62,85.65,55.17,94.79,51.57,104.2c-10.71,28,10,56.46,32.49,69.18,23.4,13.26,50.75-.82,66.29-20.7,14-17.94,20.2-43.49,3.67-62.09a30.4,30.4,0,0,0-19.61-10.13c-8.09-.71-13.86,4.44-21.76,3.74-13.14-1.18-21.51-8.45-35-5.57A27.32,27.32,0,0,0,70.81,81.09Z"/><path class="cls-3" d="M70.81,81.09C62,85.65,55.17,94.79,51.57,104.2c-10.71,28,10,56.46,32.49,69.18,23.4,13.26,50.75-.82,66.29-20.7,14-17.94,20.2-43.49,3.67-62.09a30.4,30.4,0,0,0-19.61-10.13c-8.09-.71-13.86,4.44-21.76,3.74-13.14-1.18-21.51-8.45-35-5.57A27.32,27.32,0,0,0,70.81,81.09Z"/><path class="cls-4" d="M70.81,81.09C62,85.65,55.17,94.79,51.57,104.2c-10.71,28,10,56.46,32.49,69.18,23.4,13.26,50.75-.82,66.29-20.7,14-17.94,20.2-43.49,3.67-62.09a30.4,30.4,0,0,0-19.61-10.13c-8.09-.71-13.86,4.44-21.76,3.74-13.14-1.18-21.51-8.45-35-5.57A27.32,27.32,0,0,0,70.81,81.09Z"/><path class="cls-5" d="M110.21,146.93a33.9,33.9,0,0,0,3.39-3.09c2.43-2.54,4.91-5.13,6.41-8.3,2.16-4.56,2.1-9.92.84-14.81-1.41-5.48-4.53-15.1-10.89-16.89a7.19,7.19,0,0,0-3.5.21c-13,3-27.14,13.82-24,29.37C86,150.74,98.15,156.48,110.21,146.93Z"/><path class="cls-6" d="M110.21,146.93a33.9,33.9,0,0,0,3.39-3.09c2.43-2.54,4.91-5.13,6.41-8.3,2.16-4.56,2.1-9.92.84-14.81-1.41-5.48-4.53-15.1-10.89-16.89a7.19,7.19,0,0,0-3.5.21c-13,3-27.14,13.82-24,29.37C86,150.74,98.15,156.48,110.21,146.93Z"/></svg>